<svg width="109" height="61" viewBox="0 0 109 61" fill="none" xmlns="http://www.w3.org/2000/svg">
<path id="Subtract" fill-rule="evenodd" clip-rule="evenodd" d="M88.8256 56.3837C97.7895 53.552 103.849 48.2562 105.623 41.4698C107.397 34.6835 104.703 27.0999 98.2711 20.2443C91.8612 13.4123 81.9371 7.5592 69.9903 4.43674C58.0435 1.31427 46.5246 1.56291 37.5915 4.38487C28.6276 7.21656 22.568 12.5123 20.7943 19.2987C19.8082 23.0715 20.2028 27.0907 21.8528 31.0942L21.7421 30.9545L20.421 33.6414C19.794 34.0596 19.0349 34.4943 18.2039 34.934C16.2481 35.9688 13.7617 37.0994 11.3635 38.1833L10.9795 38.3568C8.69916 39.387 6.53019 40.367 4.92267 41.2035C4.28142 41.5372 3.75895 41.8332 3.36698 42.0869C3.80722 42.1924 4.401 42.2772 5.15025 42.336C7.05253 42.4852 9.65984 42.4472 12.5865 42.3514C13.6223 42.3175 14.6979 42.2762 15.7917 42.2342L15.7918 42.2342C18.8637 42.1162 22.0788 41.9927 24.9566 42.0126L25.0087 42.1055L29.8424 42.2314C36.2447 48.3244 45.4878 53.4728 56.4268 56.3318C68.3736 59.4543 79.8925 59.2057 88.8256 56.3837ZM19.4048 31.5515C19.5236 31.467 19.6285 31.3879 19.7205 31.3144C18.113 27.1446 17.7259 22.8804 18.7983 18.777C22.8319 3.34427 45.9849 -3.96973 70.512 2.44077C95.0391 8.85127 111.652 26.5587 107.619 41.9915C103.585 57.4243 80.4322 64.7383 55.9051 58.3278C45.1384 55.5137 35.8966 50.5228 29.2568 44.5029C25.7746 44.1532 20.8043 44.343 15.9661 44.5278L15.966 44.5278L15.966 44.5278L15.9651 44.5278C14.8504 44.5704 13.7426 44.6127 12.6617 44.6481C9.74385 44.7436 7.01686 44.7874 4.97056 44.6269C3.95576 44.5473 3.03242 44.4126 2.31403 44.1761C1.6952 43.9723 0.751701 43.5379 0.531554 42.535C0.393769 41.9073 0.709786 41.4154 0.892448 41.1831C1.10146 40.9173 1.37829 40.6821 1.65149 40.4796C2.20777 40.0674 2.98367 39.6221 3.86191 39.1651C5.52856 38.2978 7.7524 37.2931 10.0054 36.2753L10.4171 36.0893C12.8305 34.9986 15.2484 33.8979 17.1292 32.9028C18.0712 32.4044 18.8456 31.9495 19.4048 31.5515ZM2.67078 41.8309C2.67101 41.8309 2.67358 41.8328 2.67785 41.837C2.67269 41.8331 2.67056 41.831 2.67078 41.8309ZM2.69947 42.6026C2.68957 42.6178 2.68692 42.6186 2.69872 42.6036L2.69947 42.6026Z" fill="#0D7978"/>
</svg>
